HIERARCHY
ROOT hip
{
  OFFSET 0.0 0.0 0.0
  CHANNELS 6 Xposition Yposition Zposition Zrotation Yrotation Xrotation
  JOINT torso
  {
    OFFSET 0.0 0.0 0.0
    CHANNELS 3 Zrotation Xrotation Yrotation
    JOINT neck
    {
      OFFSET -8.059630999999968 325.56260699999996 64.6221310000002
      CHANNELS 3 Zrotation Xrotation Yrotation
      JOINT head
      {
        OFFSET 34.685424000000125 375.1179809999999 232.79357900000002
        CHANNELS 3 Zrotation Xrotation Yrotation
        End Site
        {
          OFFSET 0.0 0.0 0.0
        }
      }
    }
    JOINT left_collar
    {
      OFFSET -8.059630999999968 325.56260699999996 64.6221310000002
      CHANNELS 3 Zrotation Xrotation Yrotation
      JOINT left_upper_arm
      {
        OFFSET -124.124665 -15.370300999999927 25.582641999999964
        CHANNELS 3 Zrotation Xrotation Yrotation
        JOINT left_forearm
        {
          OFFSET -268.19913399999996 105.06054699999993 114.74548300000004
          CHANNELS 3 Zrotation Xrotation Yrotation
          JOINT left_hand
          {
            OFFSET -235.82003099999991 -10.198180999999977 -38.67455999999993
            CHANNELS 3 Zrotation Xrotation Yrotation
            End Site
            {
              OFFSET 0.0 0.0 0.0
            }
          }
        }
      }
    }
    JOINT right_collar
    {
      OFFSET -8.059630999999968 325.56260699999996 64.6221310000002
      CHANNELS 3 Zrotation Xrotation Yrotation
      JOINT right_upper_arm
      {
        OFFSET 162.73931899999997 -2.8598030000000563 26.244994999999903
        CHANNELS 3 Zrotation Xrotation Yrotation
        JOINT right_forearm
        {
          OFFSET 284.6506340000001 103.07031299999994 145.84521499999994
          CHANNELS 3 Zrotation Xrotation Yrotation
          JOINT right_hand
          {
            OFFSET 226.332337 -12.198241999999937 -49.27258299999994
            CHANNELS 3 Zrotation Xrotation Yrotation
            End Site
            {
              OFFSET 0.0 0.0 0.0
            }
          }
        }
      }
    }
  }
}
MOTION
Frames: 19
Frame Time: 0.01
364.1197434909011 229.4503387372287 774.5807561805484 1.756402509330168 1.4959694008809394 0.4471302316295964 0.013779346883059842 -0.692500503039386 -0.019938286076892242 -0.03027462498191534 -4.147742199106043 0.3947123222892649 0.0 0.0 0.0 0.05220870972705587 0.17207356554956033 -1.2945715073654485 1.854064707106137 4.36604074836921 10.002846799238412 0.9759665895383519 -0.16713874152811434 0.13489101661139918 0.0 0.0 0.0 -0.32969010295286266 0.07259202495957129 0.9448446248800155 0.027121239834859333 2.0206045442576728 -5.753903311588779 -2.2798014396269983 -0.5755135189630749 -1.0485283374250514 0.0 0.0 0.0
364.0796497561353 229.40423881681556 774.7750686837435 1.7590455371618496 1.4875963635741236 0.41969573393064596 0.014835128796960022 -0.6942604718178909 -0.020197664450587606 -0.0271074626098434 -4.154270524134748 0.39325589978898806 0.0 0.0 0.0 0.05536318703294485 0.1725283180154804 -1.2927044371679057 1.870089065517279 4.374456387666761 10.012746193315566 0.9174008004285875 -0.1554139562720792 0.09525200231213551 0.0 0.0 0.0 -0.33310713291548866 0.07310862042603863 0.9417645471886497 -0.0030605000800356195 2.0338680758306222 -5.753493108646456 -2.2073329226915077 -0.5517393369075417 -0.9510096591323377 0.0 0.0 0.0
364.03213722097036 229.35938406643228 774.9683622519876 1.761627756418857 1.4799631785142708 0.3932016834989375 0.01565853307641003 -0.6958910157712832 -0.020406379453427183 -0.02303329175793312 -4.161549063381929 0.39128278021879953 0.0 0.0 0.0 0.05840930100316632 0.17299517595388275 -1.2911241683364785 1.88480511493264 4.381037933314967 10.018532209792001 0.8552444168204851 -0.1432389822119589 0.05754515592329119 0.0 0.0 0.0 -0.33661749579853817 0.07362827203795906 0.93807434022078 -0.03369092218225412 2.046848990317573 -5.751690870640959 -2.127447137421807 -0.5264527246213802 -0.8538942498231832 0.0 0.0 0.0
363.9744057067886 229.31321808756067 775.163320789998 1.764063396906983 1.4726615299349226 0.36745338741959915 0.016216263103036064 -0.6973217049401619 -0.020555866153348975 -0.017279187265106816 -4.169453272893787 0.3882849468075844 0.0 0.0 0.0 0.06128193985677901 0.17347563566909596 -1.289956047957538 1.8993899951839 4.386463170122517 10.021098847632619 0.7863421639943923 -0.1298580183700853 0.017042853793240793 0.0 0.0 0.0 -0.3402554385853436 0.0741511968084588 0.9335066942907561 -0.06615494265331646 2.060438487042372 -5.749295481319742 -2.036404058952291 -0.4985242017902641 -0.7529675012475588 0.0 0.0 0.0
363.90362846773854 229.2628392911975 775.3630317881102 1.7662523307532296 1.4651936967419115 0.34218275197470993 0.01648095317549488 -0.698471612772387 -0.02063851030841776 -0.009003152664258413 -4.177809252201709 0.3837054956054153 0.0 0.0 0.0 0.06391437198970307 0.17397353762512366 -1.2893468993089177 1.9152226055159682 4.391580847780929 10.021656273326455 0.7073689438539533 -0.11446989679030997 -0.03168112802366518 0.0 0.0 0.0 -0.34405935859867093 0.0746776159199768 0.9277626907210208 -0.1019725963812865 2.0756310832342124 -5.74723623679776 -1.9303882079167214 -0.46679818965451053 -0.6434622583965303 0.0 0.0 0.0
363.8170491501962 229.2050325015042 775.5709438364069 1.7680816080634754 1.456973582059039 0.317047148224074 0.016432358245235548 -0.6992507933461032 -0.02064793072182167 0.002690079080693678 -4.186391068562821 0.376948568459361 0.0 0.0 0.0 0.06624105235843976 0.17449534348858528 -1.2894623640081688 1.9338689953388666 4.39740877281288 10.02173842837286 0.6149234816418557 -0.09625513927177698 -0.0946835555812375 0.0 0.0 0.0 -0.3480702546655117 0.07520762160747932 0.9205186872032931 -0.14277005896771694 2.0935095507648653 -5.746568372538253 -1.8056313419101242 -0.4301360892325247 -0.5201270441733701 0.0 0.0 0.0
363.71208338798857 229.13630411587323 775.7908231960599 1.7694281109137109 1.4473290081687558 0.2916291891751331 0.01605830036273272 -0.6995622834459246 -0.020579225411378674 0.0187310136346163 -4.1949193487015926 0.3673908723624633 0.0 0.0 0.0 0.06820051502811066 0.17505028855204097 -1.290483119080683 1.957063956283174 4.40512753616077 10.023202926488922 0.5056283492515398 -0.07440873942838808 -0.17856729354551953 0.0 0.0 0.0 -0.352329937380524 0.07574103543192535 0.9114348134996929 -0.19024938473471228 2.1152282924280534 -5.7484672383993125 -1.6585382838666096 -0.3874639873526123 -0.3773032193431765 0.0 0.0 0.0
363.58642206349646 229.05291981773993 776.0267114050736 1.7701623559242181 1.4355052549503744 0.26543740965801 0.015355334754340871 -0.6993045763873362 -0.02042917237707019 0.04006551011207139 -4.203061326034714 0.3543945699248827 0.0 0.0 0.0 0.06973825391228823 0.17565038622615614 -1.2925999519445197 1.986689317816687 4.416069421261334 10.028222440322732 0.37623437826664535 -0.04817842646251788 -0.2903817535125066 0.0 0.0 0.0 -0.35687906761949206 0.07627726831455107 0.9001649741231079 -0.24615809252026336 2.141995542426408 -5.754221123134029 -1.4858121512787403 -0.3378237532154577 -0.2090096184005106 0.0 0.0 0.0
363.43813306232323 228.9509438804841 776.2828856150111 1.770153404187084 1.4206698144678296 0.2379078132167529 0.014329109811969576 -0.6983744925729262 -0.020196377435483814 0.06763350742732817 -4.210432505054752 0.33732126492010006 0.0 0.0 0.0 0.07080952831354113 0.17631027072727873 -1.2960076875780435 2.0247495187231905 4.431702099864434 10.039266924230947 0.22372761893228513 -0.01690763296088457 -0.437509559912763 0.0 0.0 0.0 -0.36175510374786773 0.07681519449157685 0.8863682222040646 -0.31225967031204277 2.1750547799861537 -5.765222729159752 -1.2845753530871233 -0.2804257684514721 -0.009033396901334473 0.0 0.0 0.0
363.26575823003475 228.8262791784268 776.5638229859195 1.7692747729097937 1.401918335305477 0.20840624084338774 0.012994399245314377 -0.6966703579327745 -0.019881362009671003 0.10234691635358696 -4.216600070391205 0.3155467420002273 0.0 0.0 0.0 0.07138205893598641 0.1770468756226324 -1.3008979995355394 2.07334508533815 4.453606832885569 10.059076208329667 0.045437175976422786 0.019918223093703218 -0.6275406964654954 0.0 0.0 0.0 -0.36699024840422534 0.07735305261102993 0.8697213074772814 -0.3903059623874801 2.215665739810744 -5.78295930767203 -1.0524829613171065 -0.21470103366982285 0.228974013592808 0.0 0.0 0.0
363.06840221529967 228.67470714337722 776.8741700032882 1.7674111871425384 1.3782817351883314 0.1762315252755633 0.011374785332023216 -0.6940953915605083 -0.019486583669954302 0.14506731297633177 -4.221088128718123 0.288476057885096 0.0 0.0 0.0 0.07143859873387924 0.1778789583535107 -1.3074511995000957 2.134644687174142 4.483451053018175 10.090622726675594 -0.16085757998446032 0.0626241846277545 -0.8681352534025595 0.0 0.0 0.0 -0.3726094955468487 0.07788838754589611 0.8499321153804924 -0.48201224840976276 2.2650853816966285 -5.809001472807531 -0.787825444293038 -0.14034997161330895 0.5113968457101566 0.0 0.0 0.0
362.84580996665363 228.49192707985299 777.2187170216841 1.7644659598306789 1.3487344682499105 0.14061941830264363 0.009501975457638695 -0.6905611944452458 -0.019016382732418045 0.19658413176691186 -4.22338483023309 0.255558530344231 0.0 0.0 0.0 0.07097937022666163 0.17882649321617458 -1.3158271829116888 2.2108564509259514 4.522955411818567 10.13706440490613 -0.39682180508811277 0.1112996216787774 -1.1668757290742486 0.0 0.0 0.0 -0.3786288851594393 0.07841804584511225 0.8267536156434977 -0.5890356299388568 2.3245491423480718 -5.844990716429999 -0.4896182414936527 -0.05738495216701447 0.8445518030899717 0.0 0.0 0.0
362.5984298499327 228.2735944800052 777.6023777038214 1.7603687419329423 1.3122039456124588 0.1007473146225392 0.007414744135505154 -0.6859912238149669 -0.018476850230441644 0.25759409159654456 -4.222951373773793 0.21630213719864755 0.0 0.0 0.0 0.0700243537123883 0.17990996653420552 -1.3261558088302148 2.3041991912914566 4.573855623108699 10.201688029497381 -0.6634633272073795 0.1657568051795944 -1.5311097331496797 0.0 0.0 0.0 -0.38505407124063684 0.07893823521612184 0.7999978352842478 -0.7129571234337908 2.395252738742291 -5.892625637977953 -0.15767622173737517 0.033836561437988785 1.2345827471279829 0.0 0.0 0.0
362.3274596717021 228.0153582487394 778.0301723634943 1.7550833418220029 1.2675811238926933 0.055739842645936205 0.005157510755166991 -0.6803241344542263 -0.017875616394692442 0.3286825921106961 -4.21923285466206 0.17028682327944988 0.0 0.0 0.0 0.06861538480607972 0.18114961704992583 -1.3385271120845985 2.4168741658417248 4.637859722530244 10.287843755215569 -0.9610355966996562 0.22549796427654004 -1.9677840002469493 0.0 0.0 0.0 -0.3918792947197092 0.07944465331554644 0.7695492629209602 -0.8552676403168396 2.4783347291790183 -5.953646880635345 0.2073283506836472 0.1325912733110131 1.6873543992676996 0.0 0.0 0.0
362.03487332343093 227.71289703602122 778.5072136072596 1.7486152771936214 1.2137322847653398 0.004675440951540928 0.002778587847879559 -0.6735168634482763 -0.01722156391503718 0.41030779083128255 -4.2116708644996015 0.11717621950161713 0.0 0.0 0.0 0.06681797598381017 0.18256467094203027 -1.352981876307859 2.551037886695989 4.716601679524217 10.398871777864523 -1.2889471754534463 0.28969491961081617 -2.4832709591208904 0.0 0.0 0.0 -0.3990868277302474 0.07993268364597321 0.7353769834807007 -1.0173578264199616 2.5748599690624636 -6.029820723740037 0.6038251509100813 0.23778446235614126 2.208346407696239 0.0 0.0 0.0
361.7234262932089 227.3619551466165 779.0386921643641 1.74101869668846 1.1495120108830275 -0.05340593413256393 0.0003281612694419035 -0.6655473136594932 -0.016524475422620602 0.502788010870273 -4.199717695167469 0.05672730708228436 0.0 0.0 0.0 0.06472272628591409 0.18417262296767264 -1.3695032082967085 2.7087764265615033 4.81159262244533 10.538022591299468 -1.645679966103095 0.3571854540000767 -3.0831897826829557 0.0 0.0 0.0 -0.4066469230827354 0.08039764771616958 0.6975447590575532 -1.2005115383240352 2.685804028439448 -6.1229212323889906 1.0293227202286872 0.3479617699135204 2.8025494278632492 0.0 0.0 0.0
361.39663892075316 226.9583787258248 779.6298604396248 1.732402295075775 1.0737773102730916 -0.11949384643920193 -0.002143912728020009 -0.656416448281904 -0.015794628604433803 0.6062930290205999 -4.1828519343639865 -0.011202383828885016 0.0 0.0 0.0 0.06244614356698074 0.1859886118615116 -1.388009807607448 2.8920815427933197 4.924171241831061 10.708372634968228 -2.0287190256767347 0.42649031773644586 -3.7722248749273537 0.0 0.0 0.0 -0.4145182664269293 0.08083509436632107 0.6562182510855827 -1.405902556818491 2.812038577365909 -6.23471083079713 1.4804028421252415 0.4613398914699863 3.4743652237248095 0.0 0.0 0.0
361.0587569890079 226.49815307024662 780.2860111535487 1.7229338460659278 0.9854027704005466 -0.1945971221740489 -0.004590389771754211 -0.6461495654497355 -0.015042355284265571 0.7208396498464974 -4.160595167893283 -0.08665036471586268 0.0 0.0 0.0 0.060130689084338905 0.18802492931951612 -1.40835159479445 3.102828813980931 5.055455190974583 10.912737493992273 -2.434497551823233 0.49585407969148193 -4.553946070333673 0.0 0.0 0.0 -0.4226488923064449 0.08124110075072714 0.6116686495067298 -1.6345939878605573 2.954317706244817 -6.366919168846937 1.9527319084398913 0.5758568149957285 4.227513154293332 0.0 0.0 0.0
360.7146900338433 225.97744195763093 781.0124484720518 1.7128429908303715 0.8832965722024109 -0.2797323824800899 -0.006968878833599515 -0.6347965186305145 -0.014277584123009897 0.8462917870143414 -4.132529428337853 -0.16954777582342814 0.0 0.0 0.0 0.05794386576189937 0.1902906882569598 -1.4303082487207164 3.342757846968977 5.206295479690024 11.153585115203752 -2.858361333438218 0.5633118520713664 -5.430636293325092 0.0 0.0 0.0 -0.4309774922422074 0.08161255571582166 0.5642721360931066 -1.887539690439751 3.1132651401420652 -6.521220201033032 2.441088616613405 0.6892412377863941 5.064945689514272 0.0 0.0 0.0
